<svg width="600" height="688" viewBox="0 0 600 688" fill="none" xmlns="http://www.w3.org/2000/svg">
<rect y="44" width="600" height="600" rx="160" fill="#1E2939"/>
<path d="M166.7 344.27C166.7 290.021 167.506 248.396 169.117 219.392H168.849L127.76 213.752C125.432 207.128 123.642 199.877 122.389 191.999C121.135 183.942 120.509 176.154 120.509 168.635C120.509 162.906 120.956 156.639 121.852 149.836C143.694 142.495 172.25 136.856 207.521 132.917C242.791 128.799 276.45 126.74 308.497 126.74C335.89 126.74 359.433 128.889 379.127 133.186C398.821 137.303 415.292 146.792 428.541 161.652C441.969 176.333 448.683 198.265 448.683 227.448C448.683 238.907 445.549 251.887 439.283 266.389C433.017 280.712 424.781 294.229 414.576 306.94C404.55 319.473 394.076 329.141 383.155 335.944C396.762 338.272 409.384 343.016 421.021 350.178C432.838 357.16 442.416 366.739 449.757 378.913C457.097 390.909 460.768 405.142 460.768 421.613C460.768 443.635 456.56 462.613 448.146 478.547C439.731 494.481 427.735 507.64 412.159 518.024C381.723 538.256 338.754 548.371 283.253 548.371C261.41 548.371 241.985 547.924 224.977 547.028C208.147 546.312 192.571 544.88 178.248 542.731C170.549 501.195 166.7 435.041 166.7 344.27ZM319.508 327.351C324.163 314.281 328.102 297.72 331.324 277.668C334.726 257.437 336.785 240.965 337.501 228.254C336.606 226.643 332.04 225.3 323.805 224.226C315.569 222.972 304.916 222.346 291.847 222.346C287.729 222.346 280.836 222.614 271.168 223.151C269.736 263.435 267.587 299.6 264.723 331.647L291.847 329.499L319.508 327.351ZM306.08 478.01C321.119 478.01 331.861 477.383 338.307 476.13C342.783 473.444 346.721 468.61 350.123 461.628C353.704 454.646 356.389 447.036 358.18 438.801C359.97 430.386 360.865 422.867 360.865 416.242C357.643 406.932 341.619 402.277 312.794 402.277C300.619 402.277 286.655 403.083 270.899 404.694C266.603 405.231 263.38 405.5 261.231 405.5L260.426 444.709C260.247 448.648 260.068 453.213 259.889 458.405C259.71 463.597 259.62 469.416 259.62 475.861C271.437 477.294 284.327 478.01 298.292 478.01H306.08Z" fill="#4F39F6"/>
</svg>
